<?xml version="1.0" standalone="no"?>
<!DOCTYPE svg PUBLIC "-//W3C//DTD SVG 20010904//EN"
 "http://www.w3.org/TR/2001/REC-SVG-20010904/DTD/svg10.dtd">
<svg version="1.0" xmlns="http://www.w3.org/2000/svg"
 width="854.000000pt" height="427.000000pt" viewBox="0 0 854.000000 427.000000"
 preserveAspectRatio="xMidYMid meet">
<metadata>
Created by potrace 1.16, written by Peter Selinger 2001-2019
</metadata>
<g transform="translate(0.000000,427.000000) scale(0.100000,-0.100000)"
fill="#000000" stroke="none">
<path d="M6942 2977 c-28 -39 -38 -216 -17 -304 10 -43 40 -51 196 -49 103 1
129 4 142 18 14 14 17 40 17 170 0 136 -2 154 -18 164 -25 16 -308 16 -320 1z
m203 -29 c75 -1 89 -10 80 -57 -4 -20 -7 -71 -7 -113 l1 -78 -124 0 c-76 0
-126 4 -130 11 -13 20 -15 222 -3 236 8 10 26 12 67 8 31 -4 83 -7 116 -7z"/>
<path d="M1477 2890 c-16 -5 -34 -13 -40 -18 -7 -5 -37 -17 -68 -26 -32 -9
-81 -34 -110 -56 -29 -22 -56 -40 -60 -40 -4 0 -10 -7 -13 -15 -7 -18 -11 -20
91 49 42 28 90 52 115 56 65 12 1110 1 1125 -12 16 -13 15 -218 -1 -250 -11
-20 -20 -21 -221 -25 -229 -5 -494 -4 -620 1 -88 4 -205 -8 -246 -25 -15 -6
-41 -28 -58 -49 -31 -39 -31 -40 -31 -157 0 -129 6 -146 65 -198 21 -17 42
-25 70 -26 22 0 202 -1 400 -2 346 -2 362 -3 405 -24 67 -32 112 -51 140 -59
45 -12 159 -140 196 -218 73 -159 72 -263 -3 -486 -14 -41 -46 -84 -66 -88
-14 -2 -36 -29 -30 -36 4 -3 1 -6 -5 -6 -13 0 -92 -80 -92 -93 0 -5 -4 -5 -10
-2 -5 3 -26 -5 -47 -19 -21 -14 -54 -27 -73 -31 -19 -3 -306 -7 -638 -9 -549
-3 -603 -2 -611 13 -10 18 -9 251 1 266 5 8 466 11 1118 6 19 0 44 1 55 4 11
2 25 4 31 4 15 1 44 29 78 74 23 31 29 53 35 115 9 110 -1 163 -41 214 -35 46
-63 70 -88 76 -8 2 -202 5 -430 6 -397 1 -417 2 -445 21 -17 11 -48 28 -70 38
-22 10 -51 28 -65 41 -68 63 -150 150 -145 154 2 3 -7 23 -20 46 -42 72 -63
283 -34 338 5 9 9 21 9 27 0 22 -15 10 -30 -21 -19 -43 -21 -259 -2 -265 6 -3
12 -16 12 -29 0 -13 4 -24 9 -24 5 0 12 -18 16 -40 4 -22 11 -40 16 -40 5 0 9
-7 9 -15 0 -8 4 -15 9 -15 5 0 13 -10 16 -21 4 -12 36 -50 72 -86 92 -90 187
-153 233 -153 14 0 41 -5 60 -11 47 -15 613 -13 696 3 91 17 112 1 175 -124
12 -24 11 -165 -1 -173 -6 -3 -10 -14 -10 -24 0 -19 -55 -81 -74 -82 -6 0
-277 -1 -602 -2 -484 -2 -594 -4 -607 -16 -15 -11 -17 -37 -17 -175 0 -143 2
-165 18 -182 18 -18 35 -19 558 -17 641 2 712 7 807 53 37 18 67 37 67 42 0 4
5 8 11 8 17 0 169 157 169 175 0 8 5 15 10 15 6 0 10 14 10 30 0 17 4 30 9 30
5 0 12 20 15 45 4 25 11 45 17 45 5 0 9 61 9 145 0 80 -4 145 -9 145 -5 0 -11
18 -15 40 -6 37 -22 76 -36 90 -3 3 -11 16 -17 30 -32 71 -137 172 -204 198
-30 11 -74 30 -99 41 -43 20 -62 21 -451 21 -448 0 -408 -5 -466 64 -21 24
-23 36 -23 144 l0 118 32 34 31 35 536 2 c295 2 548 3 564 3 l27 0 0 159 0
159 -35 31 c-41 36 -75 39 -172 16 -50 -12 -81 -12 -170 -3 -59 6 -221 12
-360 13 -139 2 -271 5 -295 8 -24 3 -56 2 -71 -3z"/>
<path d="M3496 2418 c-120 -7 -167 -25 -311 -116 -67 -43 -195 -161 -195 -180
0 -5 -13 -28 -30 -50 -16 -23 -30 -49 -30 -57 0 -8 -4 -15 -10 -15 -5 0 -10
-11 -10 -24 0 -14 -4 -27 -9 -31 -6 -3 -13 -27 -17 -53 -4 -26 -10 -49 -13
-52 -4 -3 -12 -48 -19 -100 -11 -96 0 -240 19 -240 4 0 11 -16 15 -35 3 -19
10 -38 15 -41 5 -3 9 -18 9 -35 0 -16 4 -29 9 -29 5 0 12 -11 15 -25 4 -14 11
-25 16 -25 6 0 10 -7 10 -15 0 -8 5 -15 10 -15 6 0 10 -8 10 -17 0 -18 68
-103 82 -103 4 0 24 -18 45 -39 61 -63 225 -152 308 -167 174 -32 276 -46 297
-41 45 12 113 64 133 103 11 21 24 42 28 45 5 4 12 27 14 53 3 25 10 46 14 46
5 0 9 22 9 49 0 28 4 53 10 56 6 4 5 13 -3 25 -14 24 -76 26 -187 9 -102 -15
-259 2 -330 36 -69 34 -97 63 -139 148 l-33 68 4 134 c2 88 8 139 16 147 7 7
12 20 12 31 0 10 6 25 13 32 6 8 23 28 37 45 48 60 70 79 114 98 40 18 68 20
314 20 l271 0 6 -86 c12 -173 16 -572 5 -572 -6 0 -10 -27 -10 -65 0 -37 4
-65 10 -65 6 0 10 -30 10 -70 0 -40 -4 -70 -10 -70 -6 0 -10 -26 -10 -58 0
-59 22 -101 53 -103 7 0 68 -2 137 -4 138 -4 180 5 180 39 4 409 -3 1282 -10
1284 -6 2 -10 12 -10 23 0 10 -4 19 -9 19 -5 0 -11 10 -15 23 -8 32 -42 45
-155 62 -100 15 -467 17 -685 3z m503 -39 c268 0 281 -4 311 -72 17 -38 18
-60 12 -237 -6 -197 -8 -617 -3 -700 2 -25 0 -75 -4 -111 -4 -37 -8 -100 -8
-140 l-2 -74 -113 0 c-71 0 -117 4 -123 11 -5 6 -9 44 -8 85 0 41 -4 97 -9
124 -6 28 -8 123 -5 215 12 347 1 606 -24 625 -8 6 -60 12 -116 13 -56 1 -138
5 -182 8 -132 9 -213 4 -281 -17 -56 -17 -76 -30 -132 -87 -56 -56 -74 -83
-110 -166 -32 -74 -44 -114 -45 -155 -2 -93 5 -162 20 -176 7 -7 18 -24 23
-37 19 -40 36 -68 71 -110 59 -71 70 -79 104 -78 3 0 19 -7 35 -15 17 -9 30
-12 30 -8 0 5 4 2 9 -5 6 -10 54 -15 182 -19 111 -4 177 -10 181 -17 5 -7 8
-6 8 4 0 11 2 12 13 1 10 -10 9 -15 -5 -25 -19 -14 -25 -32 -8 -21 6 3 10 1
10 -4 0 -14 -27 -14 -35 -1 -3 5 -12 10 -18 10 -8 0 -8 -3 2 -9 9 -6 10 -11 2
-15 -6 -4 -9 -12 -6 -17 4 -5 -1 -9 -9 -9 -14 0 -14 -3 -4 -22 7 -13 19 -31
27 -40 22 -28 4 -21 -24 9 l-25 28 0 -28 c0 -25 -2 -27 -21 -16 -15 8 -19 8
-15 0 4 -6 1 -12 -6 -12 -7 -1 -20 -2 -28 -3 -24 -2 -25 -36 -1 -36 12 0 21
-4 21 -10 0 -12 -312 -6 -332 6 -7 5 -15 9 -18 9 -19 3 -80 31 -80 37 0 4 -4
8 -9 8 -16 0 -80 44 -81 55 0 6 -12 18 -28 27 -15 9 -39 27 -53 40 -14 13 -36
33 -50 44 -42 34 -103 152 -112 214 -2 19 -12 53 -21 75 -22 52 -28 210 -12
295 22 110 46 183 82 242 39 63 189 208 217 208 10 0 20 7 24 16 3 8 31 27 62
41 107 49 134 53 316 48 94 -3 275 -5 404 -6z"/>
<path d="M4871 2414 l-133 -12 -42 -43 -41 -44 -3 -314 c-2 -173 -7 -320 -12
-326 -11 -14 -12 -373 -1 -380 5 -2 8 -72 8 -156 0 -94 5 -155 11 -161 14 -14
307 -11 330 3 16 10 17 54 19 532 2 442 4 523 16 532 10 7 76 10 183 8 171 -3
189 -7 231 -49 21 -21 35 -220 40 -578 3 -240 1 -352 -6 -359 -14 -14 -14 -47
-1 -47 6 0 10 -8 10 -18 0 -35 42 -43 184 -36 74 4 140 12 149 18 27 20 35
151 36 593 1 327 -1 427 -11 443 -21 34 4 40 163 40 141 0 148 -1 199 -28 28
-15 59 -41 68 -57 10 -17 21 -33 26 -36 5 -4 8 -215 7 -470 0 -255 2 -469 6
-475 18 -25 54 -32 173 -31 119 0 156 6 172 31 4 6 8 37 8 68 0 31 5 60 10 63
12 8 14 445 1 445 -4 0 -11 96 -14 213 -5 208 -5 213 -33 267 -15 30 -31 57
-36 58 -4 2 -8 10 -8 18 0 8 -4 14 -8 14 -5 0 -14 10 -20 23 -41 79 -105 140
-219 207 -45 27 -66 32 -170 41 -120 11 -368 5 -435 -10 -44 -10 -65 -29 -74
-67 l-7 -29 29 29 c39 39 58 44 134 39 58 -4 174 -5 345 -4 79 1 153 -25 221
-78 53 -41 54 -43 36 -59 -28 -25 -48 -65 -33 -70 6 -2 11 -10 11 -18 0 -8 7
-17 16 -21 8 -3 13 -12 10 -19 -3 -8 -1 -14 5 -14 6 0 7 -4 4 -10 -3 -5 -1
-10 5 -10 6 0 10 -6 9 -12 -4 -31 2 -49 13 -42 8 5 9 0 6 -14 -4 -12 -2 -22 3
-22 5 0 9 5 9 12 0 6 6 3 14 -8 8 -11 18 -15 23 -10 4 5 2 11 -4 13 -15 5 -17
33 -3 33 6 0 10 -5 10 -12 0 -9 3 -9 12 0 10 10 10 15 -2 22 -12 8 -12 10 -1
10 8 0 11 6 7 16 -3 9 -2 12 5 9 6 -4 8 -13 5 -20 -2 -7 4 -15 15 -18 11 -3
23 -15 26 -26 3 -12 9 -21 13 -21 10 0 5 -322 -5 -362 -9 -34 -35 -37 -35 -5
0 16 -2 19 -9 8 -7 -11 -12 -10 -22 8 -16 25 -29 27 -29 5 0 -10 -6 -14 -14
-11 -8 3 -17 -1 -20 -9 -3 -9 1 -14 14 -14 13 0 17 -5 14 -14 -3 -8 -12 -12
-20 -9 -9 3 -14 -2 -14 -18 0 -12 -3 -19 -6 -16 -11 11 -40 -36 -42 -68 -1
-16 -7 -31 -12 -33 -6 -2 -10 -11 -11 -20 0 -11 -2 -12 -6 -4 -2 6 -8 10 -12
7 -19 -11 -30 114 -30 330 0 127 0 232 -1 235 -1 3 -3 15 -6 28 -3 19 -2 21
10 10 8 -7 12 -16 9 -20 -2 -5 0 -16 6 -25 9 -17 10 -17 16 0 9 21 34 23 41 2
3 -8 15 -17 26 -21 13 -4 17 -11 13 -22 -5 -13 -3 -14 5 -6 9 9 8 18 -4 37 -9
13 -18 38 -19 55 -1 16 -5 28 -10 25 -4 -2 -5 -16 -1 -31 4 -23 4 -24 -6 -9
-6 10 -16 14 -23 10 -7 -4 -6 3 3 17 19 31 15 81 -6 73 -19 -7 -18 -23 4 -39
16 -12 15 -13 -5 -14 -17 0 -21 -4 -17 -17 4 -13 3 -15 -4 -5 -5 7 -7 25 -4
40 l4 27 -18 -25 c-19 -26 -36 -41 -42 -36 -1 2 -5 14 -7 26 -6 29 -25 51 -25
29 0 -9 -7 -16 -15 -16 -8 0 -15 4 -15 9 0 5 -4 7 -9 4 -4 -3 -27 4 -50 15
-24 11 -59 20 -79 20 -52 -1 -284 -10 -300 -12 -16 -3 -20 -24 -25 -142 -2
-54 -9 -103 -16 -110 -14 -14 -15 -41 -1 -32 6 3 10 2 10 -4 0 -5 -4 -11 -10
-13 -11 -4 -14 -54 -5 -85 6 -18 3 -23 -11 -23 -15 0 -16 -2 -5 -9 7 -5 10
-14 7 -20 -4 -6 -2 -11 4 -11 8 0 10 -9 6 -27 -5 -17 -3 -29 6 -34 10 -7 10
-9 0 -9 -9 0 -10 -5 -4 -17 13 -25 11 -234 -1 -226 -6 4 -7 1 -1 -8 17 -28 13
-86 -6 -74 -4 3 -6 -4 -3 -16 5 -17 2 -20 -13 -17 -10 2 -20 12 -23 23 -2 11
-8 23 -14 27 -8 5 -5 13 7 27 17 19 17 20 -3 31 -16 8 -21 8 -21 -1 0 -7 -3
-9 -6 -6 -10 10 17 38 29 30 6 -3 7 -1 3 6 -4 6 -12 9 -17 5 -5 -3 -17 0 -25
7 -13 11 -15 10 -12 -6 1 -10 -3 -20 -11 -23 -10 -3 -12 0 -8 12 4 11 3 16 -4
14 -18 -6 -40 -81 -27 -89 8 -5 8 -15 -1 -37 -7 -17 -10 -36 -6 -41 3 -6 1
-11 -4 -11 -6 0 -11 5 -11 12 0 6 -3 8 -6 5 -4 -4 -2 -13 5 -21 9 -11 8 -15
-4 -20 -8 -3 -15 -11 -15 -18 0 -9 3 -9 10 2 5 8 12 11 16 7 4 -3 1 -13 -6
-22 -13 -16 -31 -20 -29 -8 5 29 -3 52 -15 47 -16 -6 -27 47 -17 84 4 14 4 49
1 78 -4 31 -2 58 4 64 7 7 6 10 -3 10 -9 0 -10 4 -4 13 6 6 9 22 8 35 -2 24
10 30 18 10 3 -8 6 -6 6 5 1 9 -6 17 -15 17 -14 0 -15 7 -11 37 4 20 12 40 19
45 10 6 10 8 1 8 -7 0 -13 5 -13 11 0 6 6 9 14 6 8 -3 17 0 20 8 3 9 0 12 -10
8 -10 -4 -12 0 -7 13 5 13 3 16 -8 12 -10 -4 -15 3 -16 23 -1 16 1 28 5 28 18
-3 26 2 14 10 -8 5 -15 31 -16 62 -2 30 -15 99 -30 154 -28 101 -30 105 -105
168 -12 9 -26 17 -31 17 -6 0 -10 4 -10 8 0 23 -381 15 -388 -8 -2 -5 -9 -10
-16 -10 -10 0 -12 -63 -12 -277 1 -153 -3 -325 -8 -383 -5 -58 -9 -126 -10
-152 -1 -26 -5 -51 -9 -54 -10 -10 -9 -26 2 -20 10 7 20 -35 28 -121 4 -50 3
-64 -9 -68 -9 -4 -64 -7 -124 -8 -123 -2 -138 4 -128 58 6 36 7 138 1 803 l-4
423 26 30 c41 46 65 48 566 36 125 -3 179 -8 205 -19 19 -9 56 -25 82 -37 26
-11 51 -21 55 -21 14 0 -72 71 -102 85 -81 35 -399 50 -634 29z"/>
<path d="M6939 2404 c-7 -9 -10 -226 -9 -715 1 -650 2 -703 18 -715 19 -15
298 -20 318 -6 15 9 26 92 23 167 -2 33 -2 75 0 93 1 17 2 67 1 110 0 42 -3
301 -6 575 -2 273 -8 498 -12 499 -4 0 -78 2 -165 3 -119 1 -160 -1 -168 -11z
m121 -45 c25 -1 67 1 93 5 31 6 52 5 59 -2 17 -17 11 -289 -10 -476 l-7 -58
-19 21 c-17 18 -17 21 -3 15 10 -3 17 -1 17 5 0 6 -5 11 -11 11 -6 0 -9 6 -6
14 8 21 -21 28 -32 8 -8 -12 -10 4 -11 61 0 52 -4 76 -10 72 -6 -4 -8 -15 -5
-26 4 -11 2 -19 -4 -19 -6 0 -11 6 -11 13 -1 16 -32 -63 -33 -85 -1 -21 -13
-24 -21 -5 -7 14 1 -32 10 -60 4 -13 3 -14 -4 -5 -7 11 -10 11 -16 -3 -3 -9
-11 -13 -17 -9 -8 4 -9 3 -5 -4 4 -7 4 -17 0 -23 -4 -8 -9 -7 -15 2 -7 11 -9
9 -10 -6 -1 -11 -1 -24 1 -30 1 -7 -2 -7 -9 0 -15 16 -27 177 -23 325 2 74 3
162 3 194 -1 61 8 77 38 71 9 -1 36 -4 61 -6z"/>
</g>
</svg>
